name Walk2.mot
datacolumns 19
datarows 27
range 0.60000000 0.73000000
endheader

                time	   L_ground_force_vx	   L_ground_force_vy	   L_ground_force_vz	   L_ground_force_px	   L_ground_force_py	   L_ground_force_pz	   R_ground_force_vx	   R_ground_force_vy	   R_ground_force_vz	   R_ground_force_px	   R_ground_force_py	   R_ground_force_pz	   L_ground_torque_x	   L_ground_torque_y	   L_ground_torque_z	   R_ground_torque_x	   R_ground_torque_y	   R_ground_torque_z	
          0.60000000	         -5.28062928	         96.87992691	        -12.23538599	         -0.06711953	          0.00000000	          0.00170374	          0.00000002	         -0.00000005	         -0.00000000	          0.00000000	          0.00000000	          0.00000000	          0.00000000	          0.21342462	          0.00000000	          0.00000000	         -0.00000000	          0.00000000	
          0.60500000	         -9.65172655	        134.15620423	        -16.50283718	         -0.14527762	          0.00000000	          0.00188584	          0.00000002	         -0.00000001	          0.00000000	          0.00000000	          0.00000000	          0.00000000	          0.00000000	          0.26600662	          0.00000000	          0.00000000	         -0.00000000	          0.00000000	
          0.61000000	        -15.14688171	        173.76756924	        -20.74007222	         -0.21424273	          0.00000000	          0.00204894	          0.00000002	          0.00000005	          0.00000000	          0.00000000	          0.00000000	          0.00000000	          0.00000000	          0.32065224	          0.00000000	          0.00000000	         -0.00000000	          0.00000000	
          0.61500000	        -21.76654428	        213.77681769	        -24.58500572	         -0.27162644	          0.00000000	          0.00214114	          0.00000002	          0.00000015	          0.00000001	          0.00000000	          0.00000000	          0.00000000	          0.00000000	          0.37157910	          0.00000000	          0.00000000	         -0.00000001	          0.00000000	
          0.62000000	        -29.37362313	        252.87072238	        -27.64800676	         -0.31679809	          0.00000000	          0.00210634	          0.00000001	          0.00000027	          0.00000002	          0.00000000	          0.00000000	          0.00000000	          0.00000000	          0.41199392	          0.00000000	          0.00000000	         -0.00000001	          0.00000000	
          0.62500000	        -37.68536104	        290.42162159	        -29.59449836	         -0.35031164	          0.00000000	          0.00189896	          0.00000000	          0.00000044	          0.00000003	          0.00000000	          0.00000000	          0.00000000	          0.00000000	          0.43425358	          0.00000000	          0.00000000	         -0.00000002	          0.00000000	
          0.63000000	        -46.33628975	        326.25620229	        -30.20852916	         -0.37344103	          0.00000000	          0.00149197	         -0.00000001	          0.00000064	          0.00000004	          0.00000000	          0.00000000	          0.00000000	          0.00000000	          0.43069813	          0.00000000	          0.00000000	         -0.00000002	          0.00000000	
          0.63500000	        -54.97501888	        360.48705128	        -29.42105006	         -0.38782441	          0.00000000	          0.00088135	         -0.00000003	          0.00000088	          0.00000006	          0.00000000	          0.00000000	          0.00000000	          0.00000000	          0.39623475	          0.00000000	          0.00000000	         -0.00000002	          0.00000000	
          0.64000000	        -63.35405389	        393.32382329	        -27.30818463	         -0.39521051	          0.00000000	          0.00008886	         -0.00000006	          0.00000114	          0.00000008	          0.00000000	          0.00000000	          0.00000000	          0.00000000	          0.33060157	          0.00000000	          0.00000000	         -0.00000003	          0.00000000	
          0.64500000	        -71.35175301	        424.84981458	        -24.06299094	         -0.39729216	          0.00000000	         -0.00084261	         -0.00000010	          0.00000141	          0.00000009	          0.00000000	          0.00000000	          0.00000000	          0.00000000	          0.23891406	          0.00000000	          0.00000000	         -0.00000003	          0.00000000	
          0.65000000	        -78.89846476	        454.84110116	        -19.96697259	         -0.39560581	          0.00000000	         -0.00185799	         -0.00000015	          0.00000166	          0.00000011	          0.00000000	          0.00000000	          0.00000000	          0.00000000	          0.13074150	          0.00000000	          0.00000000	         -0.00000003	          0.00000000	
          0.65500000	        -85.85884603	        482.80618044	        -15.35794936	         -0.39147012	          0.00000000	         -0.00289706	         -0.00000021	          0.00000184	          0.00000012	          0.00000000	          0.00000000	          0.00000000	          0.00000000	          0.01913233	          0.00000000	          0.00000000	         -0.00000003	          0.00000000	
          0.66000000	        -91.98990801	        508.24475483	        -10.56369672	         -0.38595543	          0.00000000	         -0.00390517	         -0.00000028	          0.00000189	          0.00000012	          0.00000000	          0.00000000	          0.00000000	          0.00000000	         -0.08161081	          0.00000000	          0.00000000	         -0.00000002	          0.00000000	
          0.66500000	        -97.03263543	        530.88797096	         -5.84099577	         -0.37988397	          0.00000000	         -0.00484257	         -0.00000034	          0.00000173	          0.00000010	          0.00000000	          0.00000000	          0.00000000	          0.00000000	         -0.16016318	          0.00000000	          0.00000000	         -0.00000001	          0.00000000	
          0.67000000	       -100.83670228	        550.76319318	         -1.36332193	         -0.37384901	          0.00000000	         -0.00568399	         -0.00000040	          0.00000128	          0.00000007	         -0.00000000	          0.00000000	         -0.00000000	          0.00000000	         -0.21173608	          0.00000000	          0.00000000	          0.00000002	          0.00000000	
          0.67500000	       -103.38716924	        568.11792723	          2.76353308	         -0.36824583	          0.00000000	         -0.00641431	         -0.00000045	          0.00000042	          0.00000001	         -0.00000000	          0.00000000	         -0.00000000	          0.00000000	         -0.23785981	          0.00000000	          0.00000000	          0.00000005	          0.00000000	
          0.68000000	       -104.74278336	        583.33827022	          6.47685390	         -0.36330809	          0.00000000	         -0.00702674	         -0.00000047	         -0.00000098	         -0.00000009	         -0.00000000	          0.00000000	         -0.00000000	          0.00000000	         -0.24377905	          0.00000000	          0.00000000	          0.00000010	          0.00000000	
          0.68500000	       -104.98799765	        596.89406815	          9.72880194	         -0.35914680	          0.00000000	         -0.00752085	         -0.00000043	         -0.00000304	         -0.00000023	         -0.00000000	          0.00000000	         -0.00000000	          0.00000000	         -0.23482994	          0.00000000	          0.00000000	          0.00000016	          0.00000000	
          0.69000000	       -104.22980717	        609.28250726	         12.46970486	         -0.35578418	          0.00000000	         -0.00790040	         -0.00000033	         -0.00000588	         -0.00000042	         -0.00000000	          0.00000000	         -0.00000000	          0.00000000	         -0.21423613	          0.00000000	          0.00000000	          0.00000024	          0.00000000	
          0.69500000	       -102.60140741	        620.96733513	         14.65655369	         -0.35318017	          0.00000000	         -0.00817178	         -0.00000013	         -0.00000958	         -0.00000066	         -0.00000000	          0.00000000	         -0.00000000	          0.00000000	         -0.18357096	          0.00000000	          0.00000000	          0.00000034	          0.00000000	
          0.70000000	       -100.24684984	        632.32864753	         16.27829680	         -0.35125390	          0.00000000	         -0.00834435	          0.00000020	         -0.00001416	         -0.00000096	         -0.00000000	          0.00000000	         -0.00000000	          0.00000000	         -0.14480972	          0.00000000	          0.00000000	          0.00000044	          0.00000000	
          0.70500000	        -97.29934100	        643.62255870	         17.37457835	         -0.34990261	          0.00000000	         -0.00843278	          0.00000070	         -0.00001957	         -0.00000131	         -0.00000001	          0.00000000	         -0.00000001	          0.00000000	         -0.10156377	          0.00000000	          0.00000000	          0.00000055	          0.00000000	
          0.71000000	        -93.87072662	        654.95321100	         18.03806751	         -0.34901615	          0.00000000	         -0.00845754	          0.00000138	         -0.00002558	         -0.00000169	         -0.00000001	          0.00000000	         -0.00000001	          0.00000000	         -0.05855492	          0.00000000	          0.00000000	          0.00000065	          0.00000000	
          0.71500000	        -90.05285313	        666.26558228	         18.40260925	         -0.34848608	          0.00000000	         -0.00844308	          0.00000227	         -0.00003181	         -0.00000207	         -0.00000001	          0.00000000	         -0.00000001	          0.00000000	         -0.02070016	          0.00000000	          0.00000000	          0.00000073	          0.00000000	
          0.72000000	        -85.92583499	        677.36549355	         18.62221203	         -0.34821131	          0.00000000	         -0.00841383	          0.00000338	         -0.00003760	         -0.00000241	         -0.00000001	          0.00000000	         -0.00000001	          0.00000000	          0.00799756	          0.00000000	          0.00000000	          0.00000076	          0.00000000	
          0.72500000	        -81.56377926	        687.95765864	         18.84638118	         -0.34810138	          0.00000000	         -0.00839305	          0.00000470	         -0.00004198	         -0.00000265	         -0.00000001	          0.00000000	         -0.00000001	          0.00000000	          0.02515087	          0.00000000	          0.00000000	          0.00000072	          0.00000000	
          0.73000000	        -77.03591124	        697.69108070	         19.19961724	         -0.34807866	          0.00000000	         -0.00840086	          0.00000617	         -0.00004364	         -0.00000269	         -0.00000001	          0.00000000	         -0.00000001	          0.00000000	          0.03009816	          0.00000000	          0.00000000	          0.00000056	          0.00000000	
